<svg width="250" height="42" viewBox="0 0 250 42" fill="none" xmlns="http://www.w3.org/2000/svg">
<g clip-path="url(#clip0_809_35)">
<path d="M40.9133 15.3141L27.9389 13.4287L22.1366 1.67206C21.9042 1.20135 21.4521 0.965576 21 0.965576L21.0017 34.7854L32.6045 40.8859C33.535 41.3744 34.6209 40.5851 34.4434 39.5499L32.2276 26.627L41.6155 17.4757C42.3685 16.7422 41.9527 15.4653 40.9133 15.3141Z" fill="#FFB820"/>
<path d="M29.5031 25.7422C29.5031 25.7422 31.5042 37.4068 31.511 37.4456C31.5042 37.4448 21.1631 34.8259 21.0017 34.7854C21 34.7845 9.39547 40.8859 9.39547 40.8859C8.46505 41.3744 7.37913 40.5851 7.5566 39.5499L9.77238 26.627L0.384469 17.4757C-0.36849 16.7422 0.0472853 15.4653 1.08672 15.3141L14.0611 13.4287L19.8634 1.67206C20.0958 1.20135 20.5479 0.965576 21 0.965576L26.2555 15.7459L38.0071 17.4538L29.5031 25.7422Z" fill="#FFD06A"/>
</g>
<g clip-path="url(#clip1_809_35)">
<path d="M144.913 15.3141L131.939 13.4287L126.137 1.67206C125.904 1.20135 125.452 0.965576 125 0.965576L125.002 34.7854L136.605 40.8859C137.535 41.3744 138.621 40.5851 138.443 39.5499L136.228 26.627L145.616 17.4757C146.369 16.7422 145.953 15.4653 144.913 15.3141Z" fill="#FFB820"/>
<path d="M133.503 25.7422C133.503 25.7422 135.504 37.4068 135.511 37.4456C135.504 37.4448 125.163 34.8259 125.002 34.7854C125 34.7845 113.395 40.8859 113.395 40.8859C112.465 41.3744 111.379 40.5851 111.557 39.5499L113.772 26.627L104.384 17.4757C103.632 16.7422 104.047 15.4653 105.087 15.3141L118.061 13.4287L123.863 1.67206C124.096 1.20135 124.548 0.965576 125 0.965576L130.256 15.7459L142.007 17.4538L133.503 25.7422Z" fill="#FFD06A"/>
</g>
<g clip-path="url(#clip2_809_35)">
<path d="M92.9133 15.3141L79.9389 13.4287L74.1366 1.67206C73.9042 1.20135 73.4521 0.965576 73 0.965576L73.0017 34.7854L84.6045 40.8859C85.535 41.3744 86.6209 40.5851 86.4434 39.5499L84.2276 26.627L93.6155 17.4757C94.3685 16.7422 93.9527 15.4653 92.9133 15.3141Z" fill="#FFB820"/>
<path d="M81.5031 25.7422C81.5031 25.7422 83.5042 37.4068 83.511 37.4456C83.5042 37.4448 73.1631 34.8259 73.0017 34.7854C73 34.7845 61.3955 40.8859 61.3955 40.8859C60.465 41.3744 59.3791 40.5851 59.5566 39.5499L61.7724 26.627L52.3845 17.4757C51.6315 16.7422 52.0473 15.4653 53.0867 15.3141L66.0611 13.4287L71.8634 1.67206C72.0958 1.20135 72.5479 0.965576 73 0.965576L78.2555 15.7459L90.0071 17.4538L81.5031 25.7422Z" fill="#FFD06A"/>
</g>
<g clip-path="url(#clip3_809_35)">
<path d="M196.913 15.3141L183.939 13.4287L178.137 1.67206C177.904 1.20135 177.452 0.965576 177 0.965576L177.002 34.7854L188.605 40.8859C189.535 41.3744 190.621 40.5851 190.443 39.5499L188.228 26.627L197.616 17.4757C198.369 16.7422 197.953 15.4653 196.913 15.3141Z" fill="#FFB820"/>
<path d="M185.503 25.7422C185.503 25.7422 187.504 37.4068 187.511 37.4456C187.504 37.4448 177.163 34.8259 177.002 34.7854C177 34.7845 165.395 40.8859 165.395 40.8859C164.465 41.3744 163.379 40.5851 163.557 39.5499L165.772 26.627L156.384 17.4757C155.632 16.7422 156.047 15.4653 157.087 15.3141L170.061 13.4287L175.863 1.67206C176.096 1.20135 176.548 0.965576 177 0.965576L182.256 15.7459L194.007 17.4538L185.503 25.7422Z" fill="#FFD06A"/>
</g>
<g clip-path="url(#clip4_809_35)">
<mask id="mask0_809_35" style="mask-type:alpha" maskUnits="userSpaceOnUse" x="196" y="-21" width="32" height="84">
<rect x="196" y="-21" width="32" height="84" fill="#C4C4C4"/>
</mask>
<g mask="url(#mask0_809_35)">
<path d="M236.456 24.6681L235.891 25.2185L236.025 25.9959L237.503 25.7422C236.025 25.9959 236.025 25.9959 236.025 25.996L236.025 25.9964L236.025 25.998L236.026 26.0043L236.03 26.0293L236.047 26.1269L236.111 26.4972L236.337 27.8191L237.026 31.833L237.643 35.4257L234.683 34.6763C233.99 34.5009 233.295 34.3251 232.648 34.161C230.86 33.7084 229.428 33.3458 229.367 33.3306L229.353 33.3876C228.825 33.3294 228.358 33.4303 228.343 33.4379L228.323 33.4478L228.311 33.4537L228.3 33.4595L228.273 33.4739L228.174 33.5255L227.805 33.7193L226.49 34.4104L222.5 36.5076L218.511 38.6049L217.196 39.2961L217.115 39.3389L219.251 26.8805L219.384 26.1033L218.819 25.5529L209.769 16.7307L222.277 14.9131L223.057 14.7997L223.406 14.0925L228.445 3.88251L232.842 16.2484L233.145 17.1003L234.04 17.2303L242.784 18.501L236.456 24.6681Z" stroke="#FFD06A" stroke-width="3"/>
</g>
</g>
<defs>
<clipPath id="clip0_809_35">
<rect width="42" height="42" fill="white"/>
</clipPath>
<clipPath id="clip1_809_35">
<rect width="42" height="42" fill="white" transform="translate(104)"/>
</clipPath>
<clipPath id="clip2_809_35">
<rect width="42" height="42" fill="white" transform="translate(52)"/>
</clipPath>
<clipPath id="clip3_809_35">
<rect width="42" height="42" fill="white" transform="translate(156)"/>
</clipPath>
<clipPath id="clip4_809_35">
<rect width="42" height="42" fill="white" transform="translate(208)"/>
</clipPath>
</defs>
</svg>
