<svg width="57" height="53" viewBox="0 0 57 53" fill="none" xmlns="http://www.w3.org/2000/svg">
    <path d="M36.7458 10.4745H40.1357V12.1694H36.7458V10.4745Z" stroke="#0089EB" stroke-width="1.5" />
    <path d="M36.7458 5.38977H40.1357V7.08469H36.7458V5.38977Z" stroke="#0089EB" stroke-width="1.5" />
    <path d="M21.5678 10.377H22.4549L22.3073 9.50227C22.2659 9.25682 22.2415 9.01739 22.2415 8.77959C22.2415 8.54179 22.2659 8.30235 22.3073 8.0569L22.4549 7.18213H21.5678H9.62712C5.00787 7.18213 1.25 10.939 1.25 15.5592C1.25 20.1794 5.00787 23.9364 9.62712 23.9364H46.9153C49.7722 23.9364 52.0975 26.2624 52.0975 29.1186V32.5084C52.0975 35.3646 49.7722 37.6906 46.9153 37.6906H30.8136H30.0636V38.4406V40.1355V40.8855H30.8136H46.9153C51.5345 40.8855 55.2924 37.1286 55.2924 32.5084V29.1186C55.2924 24.4984 51.5345 20.7415 46.9153 20.7415H9.62712C6.77022 20.7415 4.44492 18.4154 4.44492 15.5592C4.44492 12.7031 6.77022 10.377 9.62712 10.377H21.5678Z" stroke="#0089EB" stroke-width="1.5" />
    <path d="M24.9985 36.2873C24.7629 35.4517 24.4332 34.6543 24.0213 33.917L23.7993 33.5195L24.7561 31.6602L22.0349 28.9382L20.1747 29.8958L19.7781 29.6729C19.0434 29.2627 18.2468 28.9339 17.4086 28.6966L16.9705 28.5729L16.3315 26.5763H12.4832L11.8434 28.5729L11.4052 28.6966C10.5671 28.9339 9.77049 29.2627 9.03575 29.6729L8.63914 29.8958L6.77897 28.9382L4.05778 31.6602L5.01456 33.5195L4.79253 33.917C4.37981 34.6543 4.051 35.4517 3.81541 36.2873L3.69168 36.7254L1.69507 37.3636V41.2119L3.69168 41.8509L3.81541 42.289C4.05185 43.1271 4.38066 43.9246 4.79253 44.6585L5.01541 45.056L4.05778 46.9161L6.77897 49.6373L8.63914 48.6805L9.03575 48.9034C9.77049 49.3136 10.5671 49.6424 11.4052 49.8797L11.8434 50.0034L12.4824 52H16.3307L16.9705 50.0034L17.4086 49.8797C18.2468 49.6424 19.0434 49.3136 19.7781 48.9034L20.1747 48.6805L22.0349 49.6373L24.7561 46.9161L23.7985 45.056L24.0213 44.6585C24.4324 43.9246 24.762 43.1271 24.9985 42.289L25.1222 41.8509L27.1188 41.2127V37.3644L25.1222 36.7254L24.9985 36.2873ZM14.4069 47.7627C9.72642 47.7627 5.93236 43.9687 5.93236 39.2882C5.93236 34.6077 9.72642 30.8136 14.4069 30.8136C19.0874 30.8136 22.8815 34.6077 22.8815 39.2882C22.8815 43.9687 19.0874 47.7627 14.4069 47.7627Z" stroke="#0089EB" stroke-width="1.5" />
    <path d="M13.5595 36.7458H15.2544C15.7213 36.7458 16.1018 37.1254 16.1018 37.5932H17.7968C17.7968 36.1916 16.6561 35.0509 15.2544 35.0509V33.356H13.5595V35.0509C12.1578 35.0509 11.0171 36.1916 11.0171 37.5932C11.0171 38.9949 12.1578 40.1356 13.5595 40.1356H15.2544C15.7213 40.1356 16.1018 40.5153 16.1018 40.9831C16.1018 41.4509 15.7213 41.8305 15.2544 41.8305H13.5595C13.0925 41.8305 12.712 41.4509 12.712 40.9831H11.0171C11.0171 42.3848 12.1578 43.5254 13.5595 43.5254V45.2204H15.2544V43.5254C16.6561 43.5254 17.7968 42.3848 17.7968 40.9831C17.7968 39.5814 16.6561 38.4407 15.2544 38.4407H13.5595C13.0925 38.4407 12.712 38.061 12.712 37.5932C12.712 37.1254 13.0925 36.7458 13.5595 36.7458Z" fill="#0089EB" />
    <path d="M45.0678 16.9492H46.7627L52.6949 5.9322V5.08475H48.4576L50.1525 0H45.9152L42.5254 8.47458H47.6101L45.0678 16.9492Z" fill="#0089EB" />
    <path d="M33.356 5.38977H35.0509V12.1694H33.356V5.38977Z" stroke="#0089EB" stroke-width="1.5" />
    <path d="M26.5764 12.1694H31.6611V5.38977H26.5764C24.7069 5.38977 23.1865 6.91011 23.1865 8.7796C23.1865 10.6491 24.7069 12.1694 26.5764 12.1694Z" stroke="#0089EB" stroke-width="1.5" />
    <path d="M31.661 31.1187C32.5971 31.1187 33.3559 30.3599 33.3559 29.4238C33.3559 28.4877 32.5971 27.7289 31.661 27.7289C30.7249 27.7289 29.9661 28.4877 29.9661 29.4238C29.9661 30.3599 30.7249 31.1187 31.661 31.1187Z" stroke="#0089EB" stroke-width="1.5" />
    <path d="M38.4408 31.1187C39.3768 31.1187 40.1357 30.3599 40.1357 29.4238C40.1357 28.4877 39.3768 27.7289 38.4408 27.7289C37.5047 27.7289 36.7458 28.4877 36.7458 29.4238C36.7458 30.3599 37.5047 31.1187 38.4408 31.1187Z" stroke="#0089EB" stroke-width="1.5" />
    <path d="M45.2203 31.1187C46.1564 31.1187 46.9152 30.3599 46.9152 29.4238C46.9152 28.4877 46.1564 27.7289 45.2203 27.7289C44.2842 27.7289 43.5254 28.4877 43.5254 29.4238C43.5254 30.3599 44.2842 31.1187 45.2203 31.1187Z" stroke="#0089EB" stroke-width="1.5" />
</svg>
