<svg width="50" height="52" viewBox="0 0 50 52" fill="none" xmlns="http://www.w3.org/2000/svg">
    <path d="M49.5708 5.86826L45.1328 1.43024C44.8467 1.14413 44.4717 1.00146 44.0968 1.00146C43.7222 1.00146 43.3472 1.14452 43.0614 1.43024L0.429153 44.0618C0.154495 44.3364 0 44.7091 0 45.0975C0 45.4862 0.154495 45.8585 0.429153 46.1332L4.86717 50.5712C5.15327 50.8573 5.52788 51.0003 5.90286 51.0003C6.27747 51.0003 6.65245 50.8573 6.93855 50.5712L49.5708 7.93964C49.8455 7.66498 49.9996 7.29266 49.9996 6.90395C49.9996 6.51561 49.8455 6.14291 49.5708 5.86826Z" fill="#0089EB" />
    <path d="M23.1667 17.1808L28.6729 11.6747L21.1247 1.58748C20.6959 1.01375 19.9151 0.834838 19.2788 1.16405C18.6429 1.49287 18.3381 2.23369 18.5582 2.91537L23.1667 17.1808Z" stroke="#10B8FF" stroke-width="1.5" />
    <path d="M12.0705 28.2767L21.1114 19.2358H7.74085C7.17437 19.2358 6.65862 19.5628 6.41639 20.0751C6.17454 20.5874 6.24969 21.1932 6.60903 21.6307L12.0705 28.2767Z" stroke="#10B8FF" stroke-width="1.5" />
    <path d="M37.9293 23.7234L28.8884 32.7642H42.2589C42.8254 32.7642 43.3412 32.4373 43.5834 31.9254C43.8253 31.4131 43.7505 30.8069 43.3908 30.3694L37.9293 23.7234Z" stroke="#10B8FF" stroke-width="1.5" />
    <path d="M26.825 34.8276L21.3269 40.3258L28.875 50.4126C29.1596 50.7929 29.5991 51 30.0484 51C30.2766 51 30.5074 50.947 30.7214 50.8356C31.3577 50.5064 31.6621 49.7652 31.4416 49.0839L26.825 34.8276Z" stroke="#10B8FF" stroke-width="1.5" />
</svg>
