<svg width="44" height="52" viewBox="0 0 44 52" fill="none" xmlns="http://www.w3.org/2000/svg">
<path d="M43.0592 1.12995C43.0241 1.02964 42.9148 0.976209 42.8141 1.01026C41.5153 1.43815 40.1798 1.74535 38.8245 1.92787C37.2141 2.16297 35.5753 2.11866 33.98 1.79678C32.7713 1.5225 31.529 1.42646 30.2925 1.51181C29.2565 1.57223 28.2465 1.86019 27.3345 2.35533C26.9998 2.54326 26.6863 2.76682 26.3998 3.02216C26.1186 3.27478 25.8664 3.55762 25.6474 3.86567C25.4243 4.16803 25.2334 4.49275 25.0775 4.83457C24.9245 5.18509 24.8062 5.54971 24.7241 5.92316C24.5245 6.90859 24.5245 7.92423 24.7241 8.90966C24.878 9.70188 25.1308 10.4716 25.4765 11.2008C23.5932 12.8613 22.2114 15.015 21.4869 17.4189C20.765 16.069 19.7989 14.865 18.6372 13.8682C18.972 13.1412 19.2151 12.3753 19.361 11.5884C19.5606 10.603 19.5606 9.58732 19.361 8.60189C19.2788 8.22843 19.1605 7.86381 19.0076 7.5133C18.8518 7.17148 18.6608 6.84675 18.4377 6.5444C18.2187 6.23634 17.9665 5.95351 17.6854 5.70088C17.3987 5.44569 17.0854 5.22199 16.7507 5.03405C15.8388 4.53877 14.8287 4.25081 13.7927 4.19054C12.5469 4.11417 11.2967 4.22174 10.0823 4.50971C8.48707 4.83158 6.84821 4.87604 5.23784 4.64079C3.8828 4.46012 2.54728 4.15492 1.24825 3.72889C1.14936 3.69839 1.04392 3.75111 1.00887 3.84857C0.997043 3.88562 0.997043 3.92552 1.00887 3.96256C1.58366 6.33879 2.37146 8.65831 3.36273 10.8931C4.12332 12.6704 5.13895 14.3274 6.37772 15.8117C6.99824 16.5403 7.71537 17.1808 8.5093 17.7153C9.20221 18.1837 9.97477 18.5217 10.7891 18.7127C11.4626 18.8633 12.1578 18.8903 12.8409 18.7924C13.5407 18.6887 14.2174 18.465 14.8414 18.1313C15.1034 17.9914 15.3566 17.8352 15.5994 17.664C15.8476 17.4879 16.0855 17.2975 16.3118 17.094C16.3835 17.0191 16.3835 16.9011 16.3118 16.8261H16.2833C15.6075 16.3327 14.8884 15.9016 14.1346 15.5381C13.4051 15.179 12.6699 14.8769 11.9461 14.5749C10.8315 14.1403 9.74636 13.6339 8.69738 13.0588C7.60623 12.446 6.6302 11.6475 5.81348 10.6993C5.53535 10.3335 5.6063 9.81145 5.97221 9.53317C6.30975 9.27641 6.78651 9.31474 7.07875 9.62208C8.5834 11.3832 10.5554 12.1982 12.5844 13.0417C13.4051 13.3837 14.2315 13.7257 15.0408 14.1246C15.7166 14.458 16.3681 14.839 16.99 15.2645C18.2787 16.3514 19.3054 17.7151 19.9936 19.2541C17.1395 19.6147 14.4368 20.7435 12.174 22.5199C12.744 24.5318 14.1745 25.7799 15.4911 26.9084C17.1382 28.225 18.5745 29.439 18.6372 31.6731C18.6657 33.3374 17.8563 34.3348 16.9558 35.4347C16.1967 36.2438 15.6383 37.2199 15.3258 38.2845C15.2413 38.9862 15.2299 39.6948 15.2916 40.3989C15.3543 42.0005 15.4227 43.8585 14.8243 45.2605C14.3897 46.4999 13.2251 47.334 11.9119 47.3465C13.7035 48.8312 15.7987 49.9051 18.0501 50.4926C17.8146 48.8867 18.5359 47.2907 19.8967 46.4061C21.39 45.3118 23.8863 46.0528 26.4739 46.8279C28.3889 47.3978 30.3837 47.9678 31.6888 47.7911C36.2145 44.3831 38.5992 38.8352 37.9582 33.2063C36.4649 31.1374 34.5841 29.9804 32.9655 28.983C29.8536 27.068 27.5568 25.6545 29.1241 20.6961C27.2618 19.7817 25.2384 19.2416 23.1682 19.1059C24.0858 15.8344 25.505 13.8852 27.1236 12.5402C27.7457 12.1149 28.397 11.7339 29.0728 11.4003C29.8821 11.0013 30.7085 10.6594 31.5292 10.3174C33.5582 9.4739 35.5188 8.65888 37.0349 6.89776C37.3516 6.56477 37.8784 6.55167 38.2112 6.86841C38.5186 7.16079 38.5568 7.6374 38.3002 7.97495C37.4833 8.92305 36.5074 9.72154 35.4163 10.3345C34.3673 10.9096 33.2821 11.416 32.1676 11.8506C31.4381 12.1526 30.7085 12.4547 29.979 12.8138C29.2253 13.1771 28.506 13.6081 27.8303 14.1018H27.8018C27.7302 14.1768 27.7302 14.2948 27.8018 14.3697C28.0281 14.5733 28.266 14.7635 28.5143 14.9396C28.7572 15.1091 29.0104 15.2632 29.2723 15.4013C29.8961 15.7353 30.5729 15.9588 31.2728 16.0624C31.9558 16.1603 32.6512 16.1332 33.3246 15.9826C34.1389 15.7917 34.9114 15.4537 35.6043 14.9852C36.3963 14.4503 37.1115 13.8099 37.7302 13.0816C38.971 11.5978 39.9886 9.94082 40.7509 8.16303C41.7259 5.93043 42.4985 3.61475 43.0592 1.24394C43.071 1.20689 43.071 1.167 43.0592 1.12995Z" stroke="#10B8FF" stroke-width="1.5"/>
<path d="M16.574 31.7016C16.574 30.4136 15.4341 29.4618 14.2031 28.396C12.8523 27.2561 11.3534 25.968 10.5611 23.9504C5.09112 29.6246 4.58273 38.4424 9.36426 44.7077C11.6155 45.6253 12.5673 45.2777 12.9264 44.4399C13.3482 43.4539 13.2855 41.8466 13.2342 40.4503C13.1545 39.5607 13.1851 38.6649 13.3254 37.7829C13.6971 36.4256 14.3911 35.1782 15.3486 34.1467C16.0041 33.3488 16.5911 32.625 16.574 31.7016Z" fill="#0089EB"/>
<path d="M25.8412 48.7829C23.7324 48.1559 21.7262 47.5575 21.0537 48.0476C20.1338 48.678 19.7759 49.8632 20.1931 50.8973C20.8023 50.9663 21.4152 51.0005 22.0283 50.9999C24.3273 51.0064 26.6004 50.5145 28.6909 49.558C27.7619 49.3528 26.8044 49.0678 25.8412 48.7829Z" fill="#0089EB"/>
<path d="M30.9194 21.7448C30.15 24.8623 31.8028 25.8825 33.9971 27.2333C35.0202 27.8371 36.0026 28.5073 36.938 29.2395C35.746 26.1843 33.6452 23.5684 30.9194 21.7448Z" fill="#0089EB"/>
</svg>
