<svg width="39" height="51" viewBox="0 0 39 51" fill="none" xmlns="http://www.w3.org/2000/svg">
<path d="M7.76134 15.2559V25.4298L11.3656 22.6266V15.2559C11.3656 14.7583 11.7689 14.3548 12.2666 14.3548H13.8885C14.2419 14.3548 14.5627 14.1482 14.7089 13.8264C14.8551 13.5046 14.7996 13.127 14.567 12.8609L10.2418 7.91316C10.0708 7.71733 9.82338 7.60498 9.5633 7.60498C9.30321 7.60498 9.05594 7.71733 8.88475 7.91316L4.5678 12.8564C4.33541 13.1223 4.27982 13.4995 4.42549 13.8211C4.57115 14.1427 4.89135 14.3496 5.24447 14.3503L6.86637 14.3548C7.3618 14.3583 7.76134 14.7607 7.76134 15.2559Z" fill="#0089EB"/>
<path d="M16.772 36.4849C16.772 37.2517 17.5378 37.9176 18.5741 38.1726V34.7972C17.5379 35.0522 16.772 35.7181 16.772 36.4849Z" stroke="#10B8FF" stroke-width="1.5"/>
<path d="M28.486 7.65093V23.3295L32.0902 26.1326V7.65093C32.0902 7.15333 32.4936 6.74985 32.9912 6.74985H34.6131C34.967 6.75015 35.2881 6.54338 35.4344 6.22121C35.5807 5.89904 35.5248 5.52108 35.2916 5.25499L30.9666 0.308178C30.7955 0.112351 30.5481 0 30.288 0C30.0279 0 29.7807 0.112351 29.6095 0.308178L25.288 5.25233C25.0564 5.51803 25.001 5.89431 25.1462 6.21549C25.2913 6.53668 25.6105 6.74364 25.9629 6.74542L27.5848 6.74995C28.0825 6.74985 28.486 7.15323 28.486 7.65093Z" fill="#0089EB"/>
<path d="M5.05835 35.1145V49.5315C5.05835 49.7903 5.26817 50 5.52687 50H33.4238C33.6826 50 33.8923 49.7902 33.8923 49.5315V35.1145L19.4754 23.9016L5.05835 35.1145ZM20.3765 31.9797V32.9537C22.43 33.2889 23.9807 34.7441 23.9807 36.485C23.9807 36.9826 23.5773 37.386 23.0796 37.386C22.582 37.386 22.1785 36.9827 22.1785 36.485C22.1785 35.7181 21.4127 35.0523 20.3764 34.7972V38.3601C22.4299 38.6952 23.9806 40.1505 23.9806 41.8913C23.9806 43.6322 22.4298 45.0874 20.3764 45.4226V46.3966C20.3764 46.8942 19.973 47.2977 19.4753 47.2977C18.9777 47.2977 18.5742 46.8943 18.5742 46.3966V45.4226C16.5207 45.0874 14.97 43.6322 14.97 41.8913C14.97 41.3937 15.3734 40.9903 15.8711 40.9903C16.3687 40.9903 16.7722 41.3936 16.7722 41.8913C16.7722 42.6582 17.538 43.324 18.5743 43.5791V40.0162C16.5208 39.6811 14.9701 38.2258 14.9701 36.485C14.9701 34.7441 16.5208 33.2889 18.5743 32.9537V31.9797C18.5743 31.4821 18.9777 31.0786 19.4754 31.0786C19.9731 31.0786 20.3765 31.4821 20.3765 31.9797V31.9797Z" stroke="#10B8FF" stroke-width="1.5"/>
<path d="M20.0286 19.0322C19.7031 18.7791 19.2474 18.7791 18.9221 19.0322L12.9048 23.7123L12.8949 23.7204L1.34681 32.7005C0.955747 33.0056 0.884789 33.5695 1.18824 33.9619L1.54323 34.4187C1.84864 34.8095 2.41247 34.8801 2.80472 34.5764L18.9185 22.0426C19.2439 21.7896 19.6996 21.7896 20.0249 22.0426L36.145 34.5818C36.5374 34.8852 37.1013 34.8143 37.4065 34.4233L37.7615 33.9674C38.0648 33.5749 37.994 33.011 37.6029 32.7059L20.0286 19.0322Z" stroke="#10B8FF" stroke-width="1.5"/>
<path d="M22.1786 41.8913C22.1786 41.1245 21.4128 40.4587 20.3765 40.2036V43.579C21.4127 43.3241 22.1786 42.6582 22.1786 41.8913Z" stroke="#10B8FF" stroke-width="1.5"/>
</svg>
