<svg width="52" height="51" viewBox="0 0 52 51" fill="none" xmlns="http://www.w3.org/2000/svg">
<path d="M36.983 47.0703H15.0168C14.2079 47.0703 13.552 47.7262 13.552 48.5352C13.552 49.3441 14.2079 50 15.0168 50H36.983C37.792 50 38.4479 49.3441 38.4479 48.5352C38.4479 47.7262 37.792 47.0703 36.983 47.0703Z" stroke="#10B8FF" stroke-width="1.5"/>
<path d="M27.4648 17.155V15.5859C27.4648 14.777 26.809 14.1211 26 14.1211C25.191 14.1211 24.5352 14.777 24.5352 15.5859V17.1549C24.5352 17.9639 25.191 18.6197 26 18.6197C26.809 18.6198 27.4648 17.964 27.4648 17.155Z" fill="#0089EB"/>
<path d="M14.2324 6.85229H15.8015C16.6104 6.85229 17.2663 6.19644 17.2663 5.38745C17.2663 4.57847 16.6104 3.92261 15.8015 3.92261H14.2324C13.4234 3.92261 12.7676 4.57847 12.7676 5.38745C12.7676 6.19644 13.4234 6.85229 14.2324 6.85229Z" fill="#0089EB"/>
<path d="M36.1987 6.85229H37.7677C38.5767 6.85229 39.2325 6.19644 39.2325 5.38745C39.2325 4.57847 38.5767 3.92261 37.7677 3.92261H36.1987C35.3897 3.92261 34.7339 4.57847 34.7339 5.38745C34.7339 6.19644 35.3896 6.85229 36.1987 6.85229Z" fill="#0089EB"/>
<path d="M16.6429 14.7444C17.2159 15.3173 18.1432 15.3156 18.7145 14.7444L19.8246 13.6344C20.3965 13.0623 20.3965 12.1348 19.8246 11.5628C19.2525 10.9908 18.325 10.9908 17.753 11.5628L16.6429 12.6728C16.0708 13.2448 16.0708 14.1723 16.6429 14.7444Z" fill="#0089EB"/>
<path d="M33.2854 14.7444C33.8573 15.3163 34.785 15.3165 35.357 14.7444C35.9291 14.1723 35.9291 13.2448 35.357 12.6728L34.247 11.5627C33.675 10.9906 32.7475 10.9906 32.1754 11.5627C31.6033 12.1348 31.6033 13.0622 32.1754 13.6343L33.2854 14.7444Z" fill="#0089EB"/>
<path d="M26 10.7748C28.9753 10.7748 31.3874 8.36278 31.3874 5.3874C31.3874 2.41202 28.9753 0 26 0C23.0246 0 20.6125 2.41202 20.6125 5.3874C20.6125 8.36278 23.0246 10.7748 26 10.7748Z" fill="#0089EB"/>
<path d="M20.6741 27.6822H31.3259L30.4426 22.3828H21.5574L20.6741 27.6822Z" stroke="#10B8FF" stroke-width="1.5"/>
<path d="M19.3025 35.9114H32.6976L31.8143 30.6119H20.1858L19.3025 35.9114Z" stroke="#10B8FF" stroke-width="1.5"/>
<path d="M17.2157 30.6119H6.85894L4.20923 35.9114H16.3324L17.2157 30.6119Z" stroke="#10B8FF" stroke-width="1.5"/>
<path d="M34.2961 27.6822H43.6762L41.4313 23.1925C41.1833 22.6962 40.676 22.3827 40.1211 22.3827H33.4128L34.2961 27.6822Z" stroke="#10B8FF" stroke-width="1.5"/>
<path d="M15.8442 38.8411H2.74448L1.15463 42.0207C0.927584 42.4747 0.9519 43.014 1.21879 43.4459C1.48569 43.8777 1.95717 44.1406 2.46489 44.1406H14.9609L15.8442 38.8411Z" stroke="#10B8FF" stroke-width="1.5"/>
<path d="M17.9309 44.1406H34.0693L33.186 38.8411H18.8142L17.9309 44.1406Z" stroke="#10B8FF" stroke-width="1.5"/>
<path d="M50.8454 42.0207L49.2556 38.8412H36.156L37.0393 44.1406H49.5352C50.0428 44.1406 50.5143 43.8777 50.7813 43.4459C51.0482 43.014 51.0724 42.4747 50.8454 42.0207V42.0207Z" stroke="#10B8FF" stroke-width="1.5"/>
<path d="M18.5872 22.3828H11.8788C11.3239 22.3828 10.8168 22.6963 10.5686 23.1926L8.32373 27.6823H17.7039L18.5872 22.3828Z" stroke="#10B8FF" stroke-width="1.5"/>
<path d="M35.6677 35.9114H47.7908L45.141 30.6119H34.7844L35.6677 35.9114Z" stroke="#10B8FF" stroke-width="1.5"/>
</svg>
