<svg width="148" height="106" viewBox="0 0 148 106" fill="none" xmlns="http://www.w3.org/2000/svg">
<path d="M118.299 80.3502C117.24 82.1856 115.315 83.2086 113.338 83.2116C112.369 83.2116 111.385 82.9619 110.485 82.4473L107.952 80.979C110.678 82.5617 111.617 86.0579 110.037 88.79C108.978 90.6223 107.055 91.6483 105.078 91.6483C104.11 91.6483 103.126 91.4016 102.226 90.8811L96.6387 87.6586C99.3467 89.2292 100.27 92.6894 98.7058 95.4004L98.6607 95.4786C97.0931 98.1925 93.6239 99.1223 90.9099 97.5577L86.1109 94.7805C88.7225 96.3 89.6161 99.6518 88.1027 102.276L87.874 102.673C86.3576 105.299 82.9997 106.196 80.376 104.683L28.4888 74.7267C24.9564 72.6867 22.0168 69.7561 19.9588 66.2298L16.282 59.9323L23.5522 41.7075L35.8033 26.1161L52.4481 35.7263L63.1475 30.0877C65.5816 28.806 68.5002 28.8451 70.8982 30.178L76.1817 33.232L79.4734 35.1335L81.393 36.2408C82.1813 36.6921 82.9305 37.2036 83.6406 37.7693L96.1092 47.7375C97.6858 48.9952 98.4832 50.9871 98.2184 52.9879C98.1131 53.7672 97.8603 54.4803 97.4993 55.1061C95.9828 57.7328 92.5106 58.8551 89.6462 57.2033L116.205 72.5363C117.129 73.0688 117.854 73.8241 118.332 74.6966C119.286 76.3966 119.346 78.5389 118.299 80.3502Z" fill="#FFCEBF"/>
<path d="M118.299 80.3504C117.24 82.1857 115.315 83.2087 113.338 83.2118C112.417 83.2118 111.481 82.9861 110.621 82.5197C110.576 82.4957 110.53 82.4746 110.485 82.4475L107.952 80.9792C107.994 81.0033 108.036 81.0304 108.078 81.0574L105.277 79.4387L105.232 79.4146L102.741 77.9704L102.753 77.9824L75.6049 62.4307C74.5247 61.8079 74.1547 60.4268 74.7775 59.3466C75.4003 58.2695 76.7814 57.8994 77.8615 58.5222L110.669 77.3135C112.118 78.1488 113.968 77.6927 114.862 76.2794C115.677 74.991 115.441 73.3022 114.304 72.287C113.025 71.1449 111.502 69.8213 111 69.5306L116.205 72.5364C117.129 73.069 117.854 73.8242 118.332 74.6968C119.286 76.3968 119.346 78.539 118.299 80.3504Z" fill="#FFB09E"/>
<path d="M110.037 88.7901C108.978 90.6225 107.055 91.6485 105.078 91.6485C104.109 91.6485 103.126 91.4018 102.226 90.8813L97.0147 87.8724L96.9033 87.8092L71.6141 73.2074C70.534 72.5846 70.1669 71.2035 70.7897 70.1234C71.4125 69.0462 72.7906 68.6761 73.8708 69.2989L101.51 85.2578C102.951 86.0882 104.792 85.6038 105.635 84.1686C105.915 83.6932 106.05 83.1636 106.05 82.6371C106.05 81.8728 105.764 81.1146 105.208 80.5369L102.752 77.9824L102.74 77.9704L105.232 79.4146L105.277 79.4387L108.078 81.0574C110.708 82.6702 111.592 86.1002 110.037 88.7901Z" fill="#FFB09E"/>
<path d="M98.7056 95.4006L98.6605 95.4788C97.0929 98.1927 93.6237 99.1225 90.9097 97.5579L86.1618 94.8108C86.1799 94.8229 86.1979 94.8349 86.213 94.8469L85.7285 94.5641L85.0937 94.2L80.8994 91.7719C80.9295 91.79 80.9595 91.808 80.9896 91.8291L68.1991 84.4424C67.0979 83.8075 66.7368 82.3904 67.4078 81.3042C68.0547 80.2511 69.4658 79.9623 70.537 80.5791L90.8405 92.2894C92.6428 93.3275 94.9386 92.2894 95.3478 90.2464C95.3538 90.2224 95.3568 90.1953 95.3628 90.1712C95.5584 89.2024 95.2695 88.2004 94.5895 87.4813C93.6568 86.4944 92.3239 85.1705 91.4273 84.65L96.9033 87.8093L96.6385 87.6588C99.3465 89.2294 100.27 92.6896 98.7056 95.4006Z" fill="#FFB09E"/>
<path d="M102.226 90.8812L96.9033 87.8092L97.0146 87.8724L102.226 90.8812Z" fill="#FFB09E"/>
<path d="M88.1028 102.276L87.8741 102.673C86.3576 105.3 82.9998 106.196 80.3761 104.683L75.1648 101.674C77.7885 103.187 81.1463 102.291 82.6628 99.664L82.8915 99.2668C84.3868 96.6732 83.5323 93.3695 80.9899 91.829C80.9598 91.808 80.9297 91.7899 80.8996 91.7719L85.0939 94.2L85.7288 94.564L86.2132 94.8469C88.7466 96.3874 89.5951 99.6851 88.1028 102.276Z" fill="#FFB09E"/>
<path d="M79.4733 35.1337L59.254 55.9698L57.3187 57.2441C56.3432 57.8864 55.2339 58.2977 54.0752 58.4464C49.6005 59.0211 45.4687 55.9656 44.7075 51.5189C44.1828 48.4529 45.392 45.3475 47.852 43.4435L63.7197 31.4127C64.3386 30.9433 63.9134 29.9591 63.1477 30.0876C65.5818 28.8058 68.5004 28.8449 70.8984 30.1778L76.1819 33.2318L79.4733 35.1337Z" fill="#FFB09E"/>
<path d="M112.197 25.4037L124.649 41.7076L131.719 59.2181L128.043 65.5168C125.983 69.044 123.045 71.9704 119.51 74.0146L118.332 74.6946C118.258 74.5601 118.177 74.4262 118.089 74.2968C117.622 73.597 116.986 72.988 116.204 72.5364L75.5605 49.0711L73.3821 47.8134L58.3548 56.4894C55.4937 58.1412 52.0188 57.0207 50.5023 54.394C50.1413 53.7688 49.8879 53.0533 49.7829 52.2695C49.5187 50.2713 50.3185 48.281 51.8906 47.026L64.3637 37.0557C65.0557 36.5033 65.7884 35.9969 66.5595 35.5516L76.9902 29.5294C79.4109 28.1318 82.3785 28.0722 84.8532 29.3741L95.5565 35.0109L112.197 25.4037Z" fill="#FFCEBF"/>
<path d="M84.8531 29.3747L95.5555 35.0102L92.0833 37.0171C91.0001 37.6399 89.6732 37.667 88.569 37.0833L79.6418 32.3835C77.1715 31.0837 74.2169 31.1409 71.8008 32.5249L76.991 29.5281C79.4101 28.1321 82.3798 28.0719 84.8531 29.3747Z" fill="#FFB09E"/>
<path d="M131.719 59.2193L128.042 65.5168C125.984 69.0431 123.044 71.9707 119.509 74.0137L118.332 74.6937C118.257 74.5613 118.179 74.4259 118.089 74.2965C119.96 72.6447 121.564 70.698 122.831 68.5256L124.883 65.0113C125.888 63.2902 125.894 61.16 124.895 59.4359L106.986 28.4119L112.197 25.4031L124.649 41.7076L131.719 59.2193Z" fill="#FFB09E"/>
<path d="M42.9779 78.1517L39.0228 85.0022C37.92 86.9122 35.4787 87.5663 33.5687 86.4636L30.5773 84.7365C30.3297 84.5936 30.1052 84.429 29.9018 84.2458C28.528 83.0149 28.1546 80.9475 29.1159 79.2824L33.071 72.4319C33.8608 71.0638 35.1305 70.1467 36.5444 69.7679C37.1362 69.6093 37.7509 69.5437 38.3671 69.5835C39.2283 69.6325 40.087 69.878 40.8843 70.3384C43.6202 71.9177 44.5575 75.4155 42.9779 78.1517Z" fill="#FFCEBF"/>
<path d="M42.9792 78.1509L39.0226 85.002C37.9214 86.9126 35.4782 87.5655 33.5676 86.4643L30.5768 84.7372C30.3301 84.5928 30.1044 84.4303 29.9028 84.2467C31.654 84.8214 33.6308 84.1083 34.5936 82.4445L38.5472 75.5933C39.6665 73.6557 39.5221 71.3298 38.3667 69.5847C39.2272 69.6329 40.0877 69.8766 40.8851 70.3369C43.6201 71.9166 44.5588 75.4158 42.9792 78.1509Z" fill="#FFB09E"/>
<path d="M52.8822 83.87L48.9271 90.7205C47.8244 92.6305 45.383 93.2846 43.473 92.1819L40.4843 90.4563C40.2367 90.3134 40.0095 90.1473 39.8061 89.9641C38.4338 88.7304 38.0631 86.6646 39.0229 85.0022L42.978 78.1517C43.7679 76.7836 45.0376 75.8665 46.4514 75.4877C47.0433 75.3291 47.658 75.2635 48.2727 75.3059C49.1353 75.3523 49.994 75.5981 50.7914 76.0585C53.5246 77.636 54.4618 81.1337 52.8822 83.87Z" fill="#FFCEBF"/>
<path d="M52.8813 83.8706L48.9277 90.7217C47.8235 92.6293 45.3833 93.2852 43.4727 92.181L40.4849 90.4569C40.2352 90.3125 40.0095 90.147 39.8049 89.9635C41.5621 90.5381 43.5389 89.825 44.4987 88.1642L48.4523 81.3131C49.5716 79.3724 49.4272 77.0526 48.2718 75.3044C49.1353 75.3526 49.9928 75.5963 50.7902 76.0567C53.5252 77.6363 54.4609 81.1325 52.8813 83.8706Z" fill="#FFB09E"/>
<path d="M62.0083 90.942L59.3139 95.609C58.2623 97.4305 55.9359 98.0536 54.1146 97.0021L50.8001 95.0884C50.6099 94.9786 50.4312 94.8547 50.2712 94.7172C48.8702 93.5573 48.4653 91.5206 49.407 89.8892L52.1014 85.2222C52.8912 83.8541 54.161 82.937 55.5748 82.5582C56.1666 82.3996 56.7814 82.334 57.3976 82.3737C58.2587 82.4228 59.1174 82.6683 59.9147 83.1287C62.6507 84.7083 63.5879 88.2061 62.0083 90.942Z" fill="#FFCEBF"/>
<path d="M62.0072 90.9413L59.3143 95.608C58.2612 97.4314 55.9354 98.0542 54.1151 97.0011L50.7993 95.0875C50.6098 94.9792 50.4323 94.8558 50.2698 94.7174C51.9788 95.3523 53.9436 94.6813 54.8853 93.0505L57.5782 88.3838C58.6975 86.4461 58.5531 84.1203 57.3977 82.3722C58.2582 82.4233 59.1187 82.6671 59.9161 83.1274C62.6511 84.707 63.5868 88.2063 62.0072 90.9413Z" fill="#FFB09E"/>
<path d="M70.1978 99.6308L69.6111 100.647C68.6798 102.26 66.6191 102.814 65.0064 101.883L60.9414 99.536C60.8816 99.5014 60.8205 99.4626 60.7621 99.4256C59.2893 98.4502 58.8103 96.4818 59.7069 94.9286L60.2936 93.9126C61.0835 92.5444 62.3532 91.6274 63.767 91.2482C64.3589 91.0897 64.9736 91.0241 65.5898 91.0638C66.4509 91.1129 67.3096 91.3584 68.107 91.8187C70.8402 93.3972 71.7774 96.8949 70.1978 99.6308Z" fill="#FFCEBF"/>
<path d="M70.1972 99.6308L69.6104 100.648C68.6807 102.261 66.6197 102.814 65.0069 101.884L60.942 99.5376C60.8818 99.5015 60.8217 99.4623 60.7615 99.4262C62.3441 100.215 64.2848 99.6429 65.1814 98.0903L65.7682 97.0733C66.8874 95.1356 66.743 92.8128 65.5906 91.0647C66.4512 91.1128 67.3087 91.3596 68.106 91.8199C70.841 93.3965 71.7768 96.8958 70.1972 99.6308Z" fill="#FFB09E"/>
<path d="M66.4424 20.573C65.865 20.573 65.2873 20.3528 64.8465 19.9123L56.1158 11.1815C55.2345 10.3 55.2345 8.87137 56.1158 7.99008C56.9974 7.1091 58.426 7.1091 59.3073 7.99008L68.038 16.7208C68.9193 17.6024 68.9193 19.031 68.038 19.9123C67.5972 20.3528 67.0198 20.573 66.4424 20.573Z" fill="#62DBFB"/>
<path d="M74.0003 17.4426C72.7537 17.4426 71.7437 16.4325 71.7437 15.186V2.83865C71.7437 1.59209 72.7537 0.582031 74.0003 0.582031C75.2468 0.582031 76.2569 1.59209 76.2569 2.83865V15.1857C76.2569 16.4322 75.2465 17.4426 74.0003 17.4426Z" fill="#62DBFB"/>
<path d="M81.5581 20.573C80.9807 20.573 80.403 20.3528 79.9622 19.9123C79.0809 19.0307 79.0809 17.6021 79.9622 16.7208L88.693 7.99008C89.5745 7.1091 91.0031 7.1091 91.8844 7.99008C92.7657 8.87167 92.7657 10.3003 91.8844 11.1815L83.1537 19.9123C82.7132 20.3528 82.1355 20.573 81.5581 20.573Z" fill="#62DBFB"/>
<path d="M105.006 66.0704L82.3227 52.9756C79.3722 51.2723 75.7493 51.2227 72.7534 52.8444L61.3752 59.8812C60.3161 60.4529 58.8147 60.7929 57.1839 60.9313C53.0197 61.2803 49.5234 58.5092 46.5808 55.5395L51.0459 55.1724C52.7459 57.2244 55.7938 57.9676 58.3544 56.4902L73.3804 47.8128C76.97 45.9473 81.3237 46.4107 84.4349 48.9953L105.006 66.0704Z" fill="#FFB09E"/>
<path d="M38.2593 21.8629L12.2995 66.8268C11.7191 67.8321 10.4337 68.1766 9.42816 67.5962L1.05128 62.7598C0.0460325 62.1794 -0.298478 60.894 0.281925 59.8885L26.2418 14.9246C26.8222 13.9193 28.1076 13.5748 29.1131 14.1552L37.4903 18.9916C38.4955 19.572 38.84 20.8577 38.2593 21.8629Z" fill="#8795DE"/>
<path d="M38.2584 21.8617L12.2982 66.8256C11.7205 67.8335 10.4328 68.1765 9.42782 67.5958L3.41919 64.1267C4.42414 64.7074 5.70891 64.3644 6.28961 63.3564L32.2498 18.3925C32.8245 17.3966 32.4935 16.1268 31.5096 15.5371L37.4911 18.9912C38.4961 19.5719 38.8391 20.8567 38.2584 21.8617Z" fill="#6C7FD8"/>
<path d="M121.758 14.2117L147.718 59.1756C148.299 60.1808 147.954 61.4665 146.949 62.0469L138.572 66.8833C137.566 67.4637 136.281 67.1192 135.7 66.114L109.74 21.15C109.16 20.1448 109.505 18.8591 110.51 18.2787L118.887 13.4423C119.893 12.8619 121.178 13.2064 121.758 14.2117Z" fill="#FEDF30"/>
<path d="M146.949 62.0475L140.956 65.5077C141.949 64.924 142.286 63.6452 141.711 62.6463L115.751 17.6794C115.17 16.6744 113.882 16.3314 112.877 16.9121L118.886 13.4429C119.891 12.8622 121.179 13.2052 121.76 14.2102L147.72 59.1771C148.297 60.182 147.954 61.4668 146.949 62.0475Z" fill="#FED402"/>
</svg>
