<svg width="79" height="79" viewBox="0 0 79 79" fill="none" xmlns="http://www.w3.org/2000/svg">
<g clip-path="url(#clip0_708_313)">
<path d="M58.6101 62.0858C58.6733 60.1366 57.0966 58.5177 55.1571 58.5177H55.1498V58.5165H55.4385C57.3214 58.5147 58.8463 56.9868 58.8451 55.1039C58.8439 53.221 57.316 51.7058 55.4331 51.707C53.863 51.707 42.9158 51.707 41.2474 51.707C40.852 51.707 40.5718 51.3206 40.6947 50.9451L41.9382 47.1498C42.9965 43.9198 42.8085 41.7205 42.8085 37.9372C42.8085 35.7119 41.0045 33.9086 38.7793 33.9086C36.7578 33.9086 35.049 35.4057 34.7844 37.4098C34.4921 39.6272 34.2944 43.5702 30.6293 47.0998L28.0418 49.5902C26.6007 50.9783 24.678 51.7534 22.6776 51.7534H19.2788V74.118C20.2034 74.1174 22.061 74.1174 22.0622 74.1174C27.0015 74.1144 26.5501 79.0055 32.693 79H53.5996C55.4801 79 57.0044 77.4751 57.0044 75.5947C57.0044 73.7136 55.4801 72.1893 53.5996 72.1893H54.1993C56.0497 72.1893 57.63 70.75 57.6915 68.9002C57.756 66.9667 56.2076 65.3785 54.2885 65.3785H55.1167C56.9688 65.3785 58.5504 63.9374 58.6101 62.0858Z" fill="#FFCDBF"/>
<path d="M53.5995 75.0256H32.6929C26.5499 75.0316 27.0014 70.1399 22.0621 70.1429C22.0609 70.1429 20.2033 70.1435 19.2793 70.1442V74.1179C20.2033 74.1173 22.0609 74.1173 22.0621 74.1173C27.0014 74.1143 26.5499 79.0054 32.6929 78.9999H53.5995C55.48 78.9999 57.0043 77.4751 57.0043 75.5946C57.0043 74.852 56.7644 74.1667 56.3606 73.6074C55.7428 74.4651 54.7374 75.0256 53.5995 75.0256Z" fill="#FFBEAB"/>
<path d="M18.312 49.7439H5.41434C4.44155 49.7439 3.65259 50.5329 3.65259 51.5057V74.8033C3.65259 75.7767 4.44095 76.5656 5.41434 76.5656H18.312C19.2848 76.5656 20.0738 75.7767 20.0738 74.8033V51.5057C20.0738 50.5329 19.2848 49.7439 18.312 49.7439Z" fill="#54A0FF"/>
<path d="M8.42132 74.8039V51.5057C8.42132 50.5329 9.21029 49.7439 10.1837 49.7439H5.41434C4.44155 49.7439 3.65259 50.5329 3.65259 51.5057V74.8033C3.65259 75.7767 4.44095 76.5656 5.41434 76.5656H10.1831C9.21029 76.5656 8.42132 75.7767 8.42132 74.8039Z" fill="#338DEF"/>
<path d="M22.2314 18.4476C22.7124 17.9877 22.4472 17.1879 21.7824 17.0926L16.6466 16.3621C16.3826 16.3242 16.1548 16.162 16.0367 15.9276L13.7397 11.3692C13.4425 10.7791 12.5837 10.7791 12.2859 11.3692L9.98954 15.9276C9.8714 16.162 9.64297 16.3248 9.37898 16.3621L4.24379 17.0926C3.57898 17.1873 3.31318 17.9877 3.79476 18.4476L7.51054 21.9958C7.7016 22.1778 7.7884 22.4406 7.7438 22.6986L6.86623 27.7084C6.75292 28.3569 7.44786 28.8517 8.04275 28.5456L12.6361 26.1799C12.8718 26.0587 13.1544 26.0587 13.3901 26.1799L17.9834 28.5456C18.5783 28.8517 19.2733 28.3569 19.16 27.7084L18.2824 22.6986C18.2372 22.4406 18.3246 22.1778 18.5156 21.9958L22.2314 18.4476Z" fill="#FECA57"/>
<path d="M13.3515 21.7812C13.3967 21.5238 13.3099 21.261 13.1188 21.0784L9.40246 17.5302C9.0342 17.1788 9.10472 16.6279 9.45611 16.3464C9.43079 16.3525 9.40548 16.3579 9.37896 16.3615L4.24376 17.0926C3.57896 17.1872 3.31376 17.9876 3.79474 18.4469L7.51052 21.9951C7.70158 22.1778 7.78898 22.4406 7.74377 22.6979L6.86681 27.7084C6.7529 28.3569 7.44784 28.8517 8.04272 28.5455L12.5764 26.2106L13.3515 21.7812Z" fill="#F4B537"/>
<path d="M9.85223 16.1759L14.9874 15.4448C15.243 15.4086 15.4642 15.2543 15.5853 15.0319L13.7404 11.3692C13.4426 10.7791 12.5838 10.7791 12.2866 11.3692L9.98965 15.9276C9.93661 16.0324 9.86067 16.1223 9.77026 16.1934C9.79678 16.1867 9.82391 16.1801 9.85223 16.1759Z" fill="#F4B537"/>
<path d="M75.1245 18.4476C75.6055 17.9877 75.3397 17.1879 74.6749 17.0926L69.5397 16.3621C69.2757 16.3242 69.0473 16.162 68.9292 15.9276L66.6328 11.3692C66.3357 10.7791 65.4762 10.7791 65.179 11.3692L62.8821 15.9276C62.7639 16.162 62.5361 16.3248 62.2721 16.3621L57.1369 17.0926C56.4715 17.1873 56.2063 17.9877 56.6873 18.4476L60.4031 21.9958C60.5941 22.1778 60.6815 22.4406 60.6363 22.6986L59.7594 27.7084C59.6454 28.3569 60.341 28.8517 60.9353 28.5456L65.5286 26.1799C65.7649 26.0587 66.047 26.0587 66.2832 26.1799L70.876 28.5456C71.4708 28.8517 72.1658 28.3569 72.0525 27.7084L71.1749 22.6986C71.1297 22.4406 71.2171 22.1778 71.4082 21.9958L75.1245 18.4476Z" fill="#FECA57"/>
<path d="M66.2448 21.7812C66.29 21.5238 66.2026 21.261 66.0115 21.0784L62.2957 17.5302C61.9275 17.1788 61.998 16.6279 62.3488 16.3464C62.3234 16.3525 62.2981 16.3579 62.2722 16.3615L57.137 17.0926C56.4722 17.1872 56.2064 17.9876 56.6874 18.4469L60.4038 21.9951C60.5948 22.1778 60.6816 22.4406 60.6364 22.6979L59.7595 27.7084C59.6462 28.3569 60.3411 28.8517 60.936 28.5455L65.4697 26.2106L66.2448 21.7812Z" fill="#F4B537"/>
<path d="M62.7446 16.1759L67.8798 15.4448C68.1359 15.4086 68.3571 15.2543 68.4777 15.0319L66.6327 11.3692C66.3356 10.7791 65.4761 10.7791 65.179 11.3692L62.8826 15.9276C62.8296 16.0324 62.7536 16.1223 62.6626 16.1934C62.6897 16.1867 62.7162 16.1801 62.7446 16.1759Z" fill="#F4B537"/>
<path d="M54.365 12.1606C55.1431 11.4174 54.7133 10.1234 53.6387 9.97026L45.335 8.78832C44.9083 8.72745 44.5388 8.46526 44.3483 8.08615L40.6349 0.71546C40.154 -0.238649 38.7647 -0.238649 38.2843 0.71546L34.571 8.08615C34.3799 8.46526 34.011 8.72745 33.5837 8.78832L25.2806 9.97026C24.2053 10.1234 23.7762 11.4174 24.5537 12.1606L30.5623 17.8973C30.8715 18.1926 31.0125 18.6175 30.9396 19.034L29.5208 27.1346C29.3375 28.1833 30.4616 28.9831 31.4229 28.4883L38.8497 24.6634C39.2318 24.4669 39.6875 24.4669 40.0696 24.6634L47.4963 28.4883C48.4577 28.9831 49.5818 28.1833 49.3979 27.1346L47.9797 19.034C47.9068 18.6175 48.0478 18.1926 48.3564 17.8973L54.365 12.1606Z" fill="#FECA57"/>
<path d="M39.1921 7.87158C39.6188 7.8107 39.9876 7.54792 40.1787 7.16941L42.0327 3.48979L40.635 0.71546C40.154 -0.238649 38.7647 -0.238649 38.2844 0.71546L34.571 8.08615C34.4637 8.2977 34.3004 8.47189 34.1033 8.59605L39.1921 7.87158Z" fill="#F4B537"/>
<path d="M35.1291 26.2178L36.5473 18.1166C36.6202 17.7001 36.4792 17.2752 36.1706 16.9805L30.162 11.2432C29.5292 10.6392 29.6955 9.67067 30.3573 9.24756L25.2806 9.97022C24.2053 10.1233 23.7762 11.4174 24.5537 12.1605L30.5623 17.8972C30.8714 18.1926 31.0125 18.6175 30.9396 19.034L29.5207 27.1345C29.3375 28.1833 30.461 28.9831 31.4229 28.4883L35.1182 26.5849C35.1044 26.4673 35.1068 26.3444 35.1291 26.2178Z" fill="#F4B537"/>
<path d="M48.1436 63.7886C48.1436 64.6668 48.8554 65.3786 49.7329 65.3786H55.1164C56.9306 65.3786 58.4808 63.9953 58.6008 62.1992H49.7335C48.8554 62.1992 48.1436 62.911 48.1436 63.7886Z" fill="#FFBEAB"/>
<path d="M48.1436 56.9265C48.1436 57.8047 48.8554 58.5165 49.7329 58.5165H55.4377C57.2422 58.5147 58.7141 57.111 58.8334 55.3372H49.7329C48.8554 55.3372 48.1436 56.049 48.1436 56.9265Z" fill="#FFBEAB"/>
<path d="M57.6822 69.0099H49.7329C48.8554 69.0099 48.1436 69.7217 48.1436 70.5993C48.1436 71.4774 48.8554 72.1892 49.7329 72.1892H54.1991C56.0127 72.1892 57.5623 70.806 57.6822 69.0099Z" fill="#FFBEAB"/>
</g>
<defs>
<clipPath id="clip0_708_313">
<rect width="79" height="79" fill="white"/>
</clipPath>
</defs>
</svg>
